<?xml version="1.0" standalone="no"?>
<!DOCTYPE svg PUBLIC "-//W3C//DTD SVG 20010904//EN"
 "http://www.w3.org/TR/2001/REC-SVG-20010904/DTD/svg10.dtd">
<svg version="1.0" xmlns="http://www.w3.org/2000/svg"
 width="167.000000pt" height="167.000000pt" viewBox="0 0 167.000000 167.000000"
 preserveAspectRatio="xMidYMid meet">

<g transform="translate(0.000000,167.000000) scale(0.100000,-0.100000)"
fill="#000000" stroke="none">
<path d="M685 1555 c-176 -39 -337 -144 -451 -295 -40 -53 -102 -189 -119
-261 -8 -38 -15 -112 -15 -180 0 -215 67 -376 220 -529 149 -149 310 -215 525
-215 146 1 213 16 345 82 78 39 110 62 180 133 96 96 140 164 183 283 26 71
31 99 35 214 5 158 -10 243 -67 359 -97 201 -279 349 -495 404 -93 23 -248 26
-341 5z m244 -16 c293 -36 522 -230 613 -519 19 -64 23 -95 22 -205 -1 -112
-5 -141 -27 -210 -39 -117 -91 -199 -188 -297 -72 -72 -101 -93 -180 -132
-118 -57 -198 -76 -324 -76 -128 0 -206 19 -325 77 -79 39 -109 61 -180 133
-98 98 -140 165 -183 288 -28 80 -31 97 -31 222 0 118 4 145 26 212 41 124 91
203 192 303 137 137 273 196 486 214 9 0 53 -4 99 -10z"/>
<path d="M767 1483 c8 -52 13 -54 13 -5 0 23 -4 42 -9 42 -6 0 -7 -17 -4 -37z"/>
<path d="M802 1485 c-2 -19 2 -35 8 -35 5 0 10 10 11 23 l0 22 16 -22 c23 -33
33 -28 32 15 -1 23 -3 28 -6 15 -5 -28 -20 -30 -28 -3 -10 32 -31 23 -33 -15z"/>
<path d="M898 1513 c6 -2 13 -21 13 -41 2 -34 2 -34 6 -7 2 17 12 36 21 43 13
10 11 12 -19 11 -19 0 -28 -3 -21 -6z"/>
<path d="M671 1495 c-2 -37 11 -65 30 -65 10 0 20 4 23 9 4 5 -2 7 -12 4 -14
-3 -21 4 -29 34 -6 21 -11 29 -12 18z"/>
<path d="M966 1488 c-10 -40 -7 -56 14 -61 11 -3 20 -1 20 4 0 5 -7 9 -15 9
-8 0 -15 5 -15 10 0 6 10 10 23 10 20 1 20 2 5 11 -26 14 -22 32 5 24 17 -5
19 -4 7 4 -23 17 -37 13 -44 -11z"/>
<path d="M606 1483 c-3 -3 -6 -25 -6 -47 1 -34 2 -38 11 -23 8 14 18 17 36 12
l25 -6 -21 30 c-25 35 -36 43 -45 34z m24 -34 c0 -5 -4 -9 -10 -9 -5 0 -10 7
-10 16 0 8 5 12 10 9 6 -3 10 -10 10 -16z"/>
<path d="M1031 1458 c-10 -28 -9 -35 6 -45 9 -7 22 -13 27 -13 6 0 3 7 -8 15
-15 12 -17 19 -8 44 6 17 7 31 2 31 -4 0 -13 -15 -19 -32z"/>
<path d="M1097 1434 c-15 -30 -16 -39 -5 -45 21 -14 32 -10 19 5 -9 11 -10 20
-1 36 6 12 10 26 8 31 -2 6 -12 -6 -21 -27z"/>
<path d="M555 1440 c7 -23 2 -25 -25 -8 -28 18 -34 5 -15 -32 9 -18 19 -30 22
-27 2 3 0 15 -7 26 -13 25 -7 26 26 5 32 -22 39 -13 19 25 -18 35 -30 41 -20
11z"/>
<path d="M1156 1406 c-9 -14 -16 -31 -16 -38 0 -7 10 2 21 20 12 18 19 35 17
38 -3 2 -13 -7 -22 -20z"/>
<path d="M442 1398 c-26 -26 -2 -73 34 -66 31 6 40 34 20 57 -22 24 -37 26
-54 9z m42 -21 c8 -12 7 -20 -2 -29 -16 -16 -47 13 -38 37 7 19 25 16 40 -8z"/>
<path d="M686 1385 c-98 -27 -178 -75 -256 -154 -87 -88 -122 -148 -150 -257
-51 -199 4 -398 150 -544 175 -176 437 -219 660 -108 95 47 207 161 253 258
42 90 57 156 57 257 0 254 -178 483 -426 548 -71 18 -220 18 -288 0z m297 -32
c177 -52 319 -195 373 -378 25 -83 22 -219 -5 -306 -49 -154 -168 -282 -324
-347 -84 -34 -245 -43 -333 -17 -190 55 -332 195 -388 384 -23 79 -21 212 5
297 27 88 60 145 123 213 146 155 350 213 549 154z"/>
<path d="M740 1308 c-24 -26 -27 -90 -5 -108 18 -15 19 -53 3 -83 -10 -20 -10
-21 5 -9 19 16 89 12 95 -6 2 -8 -2 -10 -13 -6 -17 7 -55 -21 -55 -41 0 -6 13
-29 30 -51 16 -21 30 -47 30 -56 0 -27 37 -58 68 -58 21 0 32 7 43 28 8 15 17
30 21 33 10 7 -57 72 -77 75 -8 1 -13 -1 -10 -6 3 -4 -7 -15 -21 -25 -25 -16
-27 -16 -42 6 -28 39 -32 57 -16 74 20 19 19 19 44 -7 20 -21 56 -35 44 -17
-3 5 -10 6 -16 3 -7 -5 -9 -2 -6 7 3 9 -3 26 -13 40 -24 31 -24 49 0 49 46 0
45 110 -1 160 -26 28 -81 27 -108 -2z m52 -11 c10 -12 15 -12 27 0 12 12 16
12 29 -1 22 -22 -1 -50 -29 -35 -15 7 -19 6 -19 -6 0 -8 -4 -15 -10 -15 -5 0
-10 -9 -10 -19 0 -25 -18 -37 -33 -22 -8 8 -8 14 0 22 9 9 8 15 -3 26 -18 18
-18 28 2 47 19 20 29 20 46 3z m78 -51 c0 -3 -4 -8 -10 -11 -5 -3 -10 -1 -10
4 0 6 5 11 10 11 6 0 10 -2 10 -4z m51 -256 c23 -13 26 -62 5 -80 -23 -18 -59
-8 -75 22 -14 24 -14 28 3 47 21 23 38 26 67 11z"/>
<path d="M883 973 c-15 -5 -17 -39 -4 -47 14 -9 41 4 41 19 0 17 -22 33 -37
28z"/>
<path d="M678 1044 c-33 -17 -44 -53 -27 -86 14 -25 13 -87 -2 -102 -15 -16
-10 -62 9 -79 43 -39 111 -4 98 50 -9 39 -7 109 5 140 7 19 6 32 -6 49 -23 36
-46 44 -77 28z m53 -14 c22 -12 26 -59 7 -78 -30 -30 -95 7 -81 47 15 41 37
50 74 31z m1 -125 c-3 -20 -10 -25 -34 -25 -23 0 -29 4 -24 16 3 9 6 20 6 25
0 5 13 9 29 9 25 0 28 -3 23 -25z m3 -55 c24 -27 13 -68 -22 -76 -33 -9 -57 6
-61 38 -6 50 49 76 83 38z"/>
<path d="M682 988 c2 -15 10 -23 23 -23 13 0 21 8 23 23 3 18 -1 22 -23 22
-22 0 -26 -4 -23 -22z"/>
<path d="M674 829 c-3 -6 0 -18 9 -26 18 -18 37 -9 37 18 0 21 -34 27 -46 8z"/>
<path d="M1002 958 c-26 -13 -39 -54 -25 -77 5 -9 21 -22 35 -30 23 -13 29
-13 52 2 34 23 37 78 4 101 -26 18 -34 19 -66 4z m76 -47 c5 -30 -15 -51 -49
-51 -52 0 -64 71 -16 90 28 10 61 -9 65 -39z"/>
<path d="M1010 911 c0 -27 19 -36 37 -18 18 18 9 37 -18 37 -12 0 -19 -7 -19
-19z"/>
<path d="M927 820 l23 -26 -32 -12 c-29 -11 -34 -10 -60 15 -15 15 -28 23 -28
19 0 -4 12 -17 26 -29 24 -21 26 -29 28 -124 2 -111 11 -133 56 -133 33 0 60
28 60 63 0 37 -27 60 -67 55 -23 -3 -33 0 -33 10 0 9 7 11 19 7 30 -9 69 14
76 46 7 32 -12 66 -62 109 l-28 25 22 -25z m53 -71 c17 -30 -4 -69 -38 -69
-34 0 -52 16 -52 46 0 47 68 64 90 23z m-6 -125 c30 -29 9 -84 -31 -84 -23 0
-53 29 -53 51 0 23 26 49 50 49 10 0 26 -7 34 -16z"/>
<path d="M914 735 c-4 -9 -2 -21 4 -27 15 -15 44 -1 40 19 -4 23 -36 29 -44 8z"/>
<path d="M927 613 c-15 -14 -7 -43 12 -43 26 0 36 17 21 35 -14 16 -23 19 -33
8z"/>
<path d="M758 743 c-25 -6 -38 -52 -29 -98 5 -22 9 -32 10 -22 1 14 5 16 21 7
50 -27 102 26 80 81 -10 23 -40 42 -60 38 -3 -1 -12 -3 -22 -6z m70 -47 c4
-34 -13 -56 -44 -56 -49 0 -65 73 -20 90 32 11 61 -3 64 -34z"/>
<path d="M764 695 c-4 -9 -2 -21 4 -27 15 -15 44 -1 40 19 -4 23 -36 29 -44 8z"/>
<path d="M810 581 c0 -15 -7 -18 -37 -17 -21 0 -41 5 -45 10 -3 5 -9 -12 -13
-38 -6 -38 -4 -51 10 -66 43 -47 117 -4 100 57 -5 16 -7 38 -6 51 1 12 0 22
-3 22 -3 0 -6 -8 -6 -19z m-1 -53 c14 -24 14 -28 -3 -47 -34 -37 -86 -22 -86
25 0 55 63 70 89 22z"/>
<path d="M744 519 c-8 -14 21 -43 35 -35 19 12 13 46 -8 46 -11 0 -23 -5 -27
-11z"/>
<path d="M654 406 c-11 -30 1 -61 25 -64 13 -2 28 1 34 7 7 7 1 10 -19 8 -25
-2 -29 2 -29 23 0 21 4 25 28 23 15 -1 25 2 22 8 -9 14 -55 11 -61 -5z"/>
<path d="M743 380 c0 -25 2 -35 4 -22 2 12 2 32 0 45 -2 12 -4 2 -4 -23z"/>
<path d="M775 410 c-8 -13 13 -40 31 -40 8 0 14 -5 14 -11 0 -7 -10 -9 -25 -7
-14 3 -25 1 -25 -3 0 -5 14 -9 30 -9 23 0 30 5 30 19 0 11 -9 23 -20 26 -27 8
-25 23 3 28 19 4 19 4 -5 6 -15 0 -30 -4 -33 -9z"/>
<path d="M850 380 c0 -23 5 -40 11 -40 6 0 9 9 6 20 -3 11 -2 20 3 20 4 0 10
-9 13 -20 7 -28 24 -25 33 8 l7 27 7 -30 c7 -28 8 -27 9 13 1 49 -11 55 -29
11 l-13 -31 -13 31 c-18 43 -34 39 -34 -9z"/>
<path d="M971 378 c1 -24 3 -35 6 -25 5 21 22 22 29 2 4 -8 10 -15 16 -15 5 0
6 5 2 12 -5 7 -7 25 -6 40 2 24 -1 28 -23 28 -23 0 -25 -3 -24 -42z m37 20
c-6 -18 -28 -21 -28 -4 0 9 7 16 16 16 9 0 14 -5 12 -12z"/>
<path d="M1181 1381 c-14 -25 -5 -48 19 -54 28 -7 45 17 23 34 -15 12 -16 12
-10 -3 4 -12 2 -18 -8 -18 -20 0 -19 39 0 46 8 4 23 0 32 -7 14 -12 16 -12 11
1 -7 24 -55 25 -67 1z"/>
<path d="M410 1329 c12 -16 24 -28 27 -25 6 6 -29 55 -40 56 -5 0 1 -14 13
-31z"/>
<path d="M1257 1332 c-27 -29 -27 -29 -7 -47 11 -10 20 -13 20 -7 0 6 -5 12
-12 14 -6 2 -8 10 -4 17 6 9 11 9 23 -1 14 -11 15 -10 9 10 -8 24 2 29 24 10
8 -7 6 -3 -4 10 -11 12 -20 22 -21 22 -1 0 -13 -13 -28 -28z"/>
<path d="M345 1320 c-14 -15 -15 -19 -4 -15 9 3 23 -3 34 -15 10 -11 23 -20
28 -20 6 0 0 11 -12 24 -13 14 -20 29 -16 35 11 19 -11 12 -30 -9z"/>
<path d="M1304 1278 l-29 -32 29 18 c21 13 28 15 24 5 -25 -65 -19 -73 25 -34
34 30 35 41 2 19 -28 -18 -29 -16 -15 20 14 38 -3 39 -36 4z"/>
<path d="M297 1263 c-5 -8 30 -73 39 -73 3 0 4 8 2 17 -2 10 7 22 20 29 l23
12 -24 6 c-14 3 -32 8 -40 12 -8 3 -17 1 -20 -3z m43 -25 c0 -13 -23 -5 -28
10 -2 7 2 10 12 6 9 -3 16 -11 16 -16z"/>
<path d="M1358 1210 c-18 -15 -21 -22 -12 -36 6 -10 17 -20 25 -22 11 -3 12
-2 1 6 -20 14 -10 47 15 50 14 2 23 -3 26 -15 4 -16 5 -16 6 -1 2 30 -34 41
-61 18z"/>
<path d="M252 1203 c-16 -28 -16 -28 11 -29 12 0 31 -4 42 -8 12 -4 9 0 -7 10
-15 10 -29 25 -31 34 -2 11 -6 10 -15 -7z"/>
<path d="M220 1153 c0 -4 14 -16 32 -26 23 -13 28 -21 20 -29 -9 -9 -18 -8
-38 1 -37 17 -42 6 -6 -13 28 -14 32 -14 47 0 9 9 14 21 12 28 -5 14 -67 51
-67 39z"/>
<path d="M1403 1142 c-30 -16 -31 -18 -17 -42 14 -24 15 -24 11 -3 -6 29 8 39
23 16 10 -16 11 -16 7 5 -4 14 0 22 9 22 8 0 14 -5 14 -12 0 -6 2 -9 5 -6 7 6
-5 38 -14 38 -3 -1 -20 -9 -38 -18z"/>
<path d="M181 1051 c-15 -27 -14 -28 13 -35 13 -3 32 -9 43 -12 16 -5 16 -4 3
8 -8 7 -15 22 -15 33 0 27 -31 31 -44 6z m31 -6 c0 -5 -5 -11 -11 -13 -6 -2
-11 4 -11 13 0 9 5 15 11 13 6 -2 11 -8 11 -13z"/>
<path d="M1421 1046 c-14 -16 11 -57 27 -47 8 5 14 12 15 17 1 5 7 9 12 9 10
0 15 8 15 23 0 13 -59 10 -69 -2z m64 -6 c3 -5 1 -10 -4 -10 -6 0 -11 5 -11
10 0 6 2 10 4 10 3 0 8 -4 11 -10z m-35 -4 c0 -3 -4 -8 -10 -11 -5 -3 -10 -1
-10 4 0 6 5 11 10 11 6 0 10 -2 10 -4z"/>
<path d="M160 982 c0 -5 12 -15 28 -22 l27 -13 -32 -9 c-35 -9 -45 -28 -15
-28 9 0 28 -3 42 -5 22 -5 21 -3 -5 9 l-30 15 28 1 c33 0 35 12 5 34 -23 16
-23 16 7 10 23 -4 26 -3 15 5 -18 13 -70 15 -70 3z"/>
<path d="M1474 936 c-3 -14 -10 -23 -16 -20 -5 3 -7 12 -4 20 3 8 1 14 -5 14
-17 0 -5 -45 12 -48 11 -2 21 7 27 25 l10 28 11 -25 11 -25 -3 25 c-3 35 -34
39 -43 6z"/>
<path d="M156 874 c-9 -8 -16 -19 -16 -24 0 -13 30 -40 45 -40 15 0 45 27 45
40 0 13 -30 40 -45 40 -7 0 -21 -7 -29 -16z m54 -24 c0 -15 -7 -20 -25 -20
-18 0 -25 5 -25 20 0 15 7 20 25 20 18 0 25 -5 25 -20z"/>
<path d="M1470 871 l25 -7 -22 -8 c-13 -4 -23 -11 -23 -16 0 -4 10 -11 23 -15
l22 -7 -25 -8 c-21 -7 -19 -8 18 -9 50 -1 55 12 10 29 l-33 11 33 14 c43 19
40 25 -10 24 -35 -1 -38 -2 -18 -8z"/>
<path d="M208 787 c18 -21 7 -37 -25 -37 -20 0 -24 4 -20 20 3 11 1 20 -4 20
-15 0 -10 -37 6 -50 23 -19 67 3 63 32 -2 12 -10 24 -18 26 -13 5 -13 3 -2
-11z"/>
<path d="M1455 770 c4 -12 1 -28 -7 -37 -11 -15 -10 -16 12 -10 14 4 33 7 43
7 29 0 19 25 -19 43 -35 17 -35 17 -29 -3z m40 -20 c3 -5 -1 -10 -9 -10 -9 0
-16 5 -16 10 0 6 4 10 9 10 6 0 13 -4 16 -10z"/>
<path d="M165 690 c-3 -5 -4 -10 -1 -10 2 0 11 -3 20 -6 11 -4 16 -1 16 10 0
18 -25 22 -35 6z"/>
<path d="M1443 693 c24 -6 21 -22 -5 -32 -19 -7 -17 -9 17 -14 39 -6 54 2 55
29 0 13 -34 24 -65 23 -17 -1 -17 -2 -2 -6z m55 -25 c-6 -18 -28 -21 -28 -4 0
9 7 16 16 16 9 0 14 -5 12 -12z"/>
<path d="M192 609 c2 -6 8 -10 13 -10 5 0 11 4 13 10 2 6 -4 11 -13 11 -9 0
-15 -5 -13 -11z"/>
<path d="M1410 614 c0 -3 14 -10 31 -16 22 -7 29 -15 24 -27 -4 -10 -3 -12 3
-6 5 6 13 21 17 35 4 16 3 20 -3 12 -6 -10 -15 -10 -36 -2 -31 12 -36 12 -36
4z"/>
<path d="M223 535 c0 -16 24 -28 31 -17 6 10 -6 26 -20 29 -6 1 -11 -4 -11
-12z"/>
<path d="M1394 535 c19 -14 19 -15 -8 -15 -28 0 -28 0 -11 -26 16 -25 16 -25
-4 -15 -35 19 -37 11 -3 -10 40 -26 51 -19 27 17 l-17 27 26 -7 c41 -10 52 4
19 25 -33 22 -57 25 -29 4z"/>
<path d="M283 476 c-22 -23 -22 -25 -5 -45 l17 -20 30 24 c28 24 29 24 10 44
-23 26 -25 26 -52 -3z m47 -12 c0 -9 -5 -14 -12 -12 -18 6 -21 28 -4 28 9 0
16 -7 16 -16z m-30 -19 c0 -8 -4 -15 -10 -15 -5 0 -10 7 -10 15 0 8 5 15 10
15 6 0 10 -7 10 -15z"/>
<path d="M1312 448 c-26 -26 -2 -73 34 -66 31 6 40 34 20 57 -22 24 -37 26
-54 9z m43 -14 c15 -15 15 -18 1 -33 -15 -14 -17 -14 -32 1 -17 16 -13 48 5
48 5 0 17 -7 26 -16z"/>
<path d="M337 406 c-20 -43 -14 -49 30 -31 31 13 37 13 50 -1 14 -14 13 -17
-6 -38 -32 -34 -25 -44 9 -11 l30 29 -21 22 c-12 13 -31 24 -43 26 -13 2 -20
10 -20 21 3 28 -11 20 -29 -17z m24 -19 c-13 -13 -26 -3 -16 12 3 6 11 8 17 5
6 -4 6 -10 -1 -17z"/>
<path d="M1273 362 c22 -23 25 -31 14 -42 -6 -7 0 -5 15 6 29 20 37 37 15 28
-7 -2 -22 4 -32 16 -10 11 -23 20 -28 20 -6 0 1 -13 16 -28z"/>
<path d="M1220 355 c0 -5 11 -23 25 -40 13 -16 24 -25 25 -20 0 6 -11 24 -25
40 -13 17 -24 26 -25 20z"/>
<path d="M467 301 c-20 -35 -22 -48 -4 -33 17 14 42 -2 34 -22 -11 -27 9 -18
24 12 23 45 23 48 1 29 -16 -15 -22 -16 -28 -5 -5 7 -7 21 -6 31 4 24 -1 21
-21 -12z"/>
<path d="M1160 310 c-8 -14 -8 -26 0 -40 18 -33 70 -23 70 14 0 45 -50 63 -70
26z m50 -5 c15 -18 6 -45 -15 -45 -18 0 -30 24 -21 45 7 19 20 19 36 0z"/>
<path d="M1120 284 c0 -3 5 -14 10 -25 13 -23 7 -24 -26 -3 -33 22 -39 13 -19
-26 9 -18 19 -30 22 -27 2 3 -1 15 -7 27 l-12 22 31 -18 c38 -23 47 -15 26 25
-14 29 -25 39 -25 25z"/>
<path d="M550 271 c0 -6 7 -8 15 -5 22 9 31 -24 12 -43 -13 -13 -19 -14 -31
-3 -10 7 -16 8 -16 2 0 -17 40 -25 56 -11 23 19 14 63 -13 67 -13 2 -23 -1
-23 -7z"/>
<path d="M621 238 c1 -7 -1 -21 -6 -32 -5 -12 -3 -21 6 -27 25 -15 37 -10 48
22 13 39 13 39 2 39 -5 0 -12 -13 -16 -30 -7 -30 -19 -38 -30 -20 -3 6 0 13 8
16 9 3 13 13 10 25 -6 21 -25 27 -22 7z"/>
<path d="M1015 233 c8 -27 -2 -29 -27 -6 -10 9 -18 11 -18 5 0 -6 5 -14 11
-17 6 -4 8 -13 5 -20 -7 -18 13 -33 36 -27 16 4 19 10 14 36 -4 17 -11 35 -17
41 -8 7 -9 4 -4 -12z m15 -43 c0 -5 -7 -10 -15 -10 -8 0 -15 5 -15 10 0 6 7
10 15 10 8 0 15 -4 15 -10z"/>
<path d="M697 204 c8 -56 19 -61 42 -23 25 40 27 56 6 39 -13 -10 -19 -10 -35
5 -19 17 -19 16 -13 -21z m33 -13 c0 -6 -4 -13 -10 -16 -5 -3 -10 1 -10 9 0 9
5 16 10 16 6 0 10 -4 10 -9z"/>
<path d="M923 224 c22 -7 22 -31 0 -37 -14 -4 -12 -5 5 -6 12 0 22 -5 22 -10
0 -5 -10 -12 -22 -14 -19 -4 -18 -4 5 -6 27 -1 28 1 25 37 -3 31 -7 37 -28 39
-14 1 -18 0 -7 -3z"/>
<path d="M788 213 c12 -2 22 -9 22 -14 0 -5 -10 -9 -22 -10 -22 0 -22 -1 2
-11 25 -11 25 -11 3 -15 -13 -3 -23 -9 -23 -14 0 -6 10 -9 23 -7 18 2 23 10
25 41 3 35 2 37 -25 36 -23 -2 -24 -2 -5 -6z"/>
<path d="M840 201 c0 -11 9 -21 21 -24 12 -3 18 -10 14 -16 -3 -6 -11 -9 -16
-6 -5 4 -9 1 -9 -4 0 -15 23 -14 38 1 14 14 -2 38 -24 38 -23 0 -16 18 9 23
19 4 18 4 -5 6 -21 1 -28 -4 -28 -18z"/>
</g>
</svg>
